<mxfile host="app.diagrams.net" modified="2022-10-15T10:53:08.527Z" agent="5.0 (Windows)" etag="6_hHj5folxqLOspE42KI" version="20.4.1" type="github">
  <diagram id="DFVE3U21liSkLKEEEODE" name="Page-1">
    <mxGraphModel dx="1185" dy="627" grid="0" gridSize="10" guides="1" tooltips="1" connect="1" arrows="1" fold="1" page="1" pageScale="1" pageWidth="850" pageHeight="1100" math="0" shadow="0">
      <root>
        <mxCell id="0" />
        <mxCell id="1" parent="0" />
        <mxCell id="6u80KyBXNDFzt-EY8-pE-4" style="edgeStyle=orthogonalEdgeStyle;rounded=0;orthogonalLoop=1;jettySize=auto;html=1;exitX=1.015;exitY=0.164;exitDx=0;exitDy=0;entryX=0.5;entryY=0;entryDx=0;entryDy=0;exitPerimeter=0;shape=flexArrow;" parent="1" source="6u80KyBXNDFzt-EY8-pE-1" target="6u80KyBXNDFzt-EY8-pE-2" edge="1">
          <mxGeometry relative="1" as="geometry" />
        </mxCell>
        <mxCell id="6u80KyBXNDFzt-EY8-pE-1" value="&lt;b&gt;WP2&lt;/b&gt;&lt;br&gt;&lt;span&gt;Certified electric plume computation for low &amp;amp; very low earth orbit&lt;br&gt;(SPARC)&lt;br&gt;&lt;/span&gt;" style="whiteSpace=wrap;html=1;aspect=fixed;fillColor=#dae8fc;strokeColor=#6c8ebf;" parent="1" vertex="1">
          <mxGeometry x="160" y="280" width="120" height="120" as="geometry" />
        </mxCell>
        <mxCell id="6u80KyBXNDFzt-EY8-pE-7" style="edgeStyle=orthogonalEdgeStyle;rounded=0;orthogonalLoop=1;jettySize=auto;html=1;exitX=1.012;exitY=0.162;exitDx=0;exitDy=0;entryX=0.5;entryY=0;entryDx=0;entryDy=0;exitPerimeter=0;shape=flexArrow;" parent="1" source="6u80KyBXNDFzt-EY8-pE-2" target="6u80KyBXNDFzt-EY8-pE-5" edge="1">
          <mxGeometry relative="1" as="geometry" />
        </mxCell>
        <mxCell id="6u80KyBXNDFzt-EY8-pE-11" style="edgeStyle=orthogonalEdgeStyle;rounded=0;orthogonalLoop=1;jettySize=auto;html=1;exitX=0.5;exitY=1;exitDx=0;exitDy=0;strokeColor=default;startArrow=classic;startFill=1;endArrow=classic;endFill=1;entryX=0.49;entryY=-0.001;entryDx=0;entryDy=0;entryPerimeter=0;" parent="1" source="6u80KyBXNDFzt-EY8-pE-2" target="6u80KyBXNDFzt-EY8-pE-9" edge="1">
          <mxGeometry relative="1" as="geometry">
            <mxPoint x="300" y="550" as="targetPoint" />
            <Array as="points">
              <mxPoint x="380" y="600" />
              <mxPoint x="320" y="600" />
              <mxPoint x="320" y="629" />
            </Array>
          </mxGeometry>
        </mxCell>
        <mxCell id="6u80KyBXNDFzt-EY8-pE-2" value="&lt;b&gt;WP3.2/WWP3.3&lt;/b&gt;&lt;br&gt;&lt;span&gt;EP plume radar signature stealthing through strong magnetic fields in LEO &amp;amp; VLEO&lt;br&gt;(SnT)&lt;br&gt;&lt;/span&gt;" style="whiteSpace=wrap;html=1;aspect=fixed;fillColor=#ffe6cc;strokeColor=#d79b00;" parent="1" vertex="1">
          <mxGeometry x="320" y="340" width="120" height="120" as="geometry" />
        </mxCell>
        <mxCell id="6u80KyBXNDFzt-EY8-pE-8" style="edgeStyle=orthogonalEdgeStyle;rounded=0;orthogonalLoop=1;jettySize=auto;html=1;entryX=0.5;entryY=0;entryDx=0;entryDy=0;exitX=1;exitY=0.167;exitDx=0;exitDy=0;exitPerimeter=0;shape=flexArrow;" parent="1" source="6u80KyBXNDFzt-EY8-pE-5" target="6u80KyBXNDFzt-EY8-pE-6" edge="1">
          <mxGeometry relative="1" as="geometry">
            <mxPoint x="630" y="350" as="sourcePoint" />
          </mxGeometry>
        </mxCell>
        <mxCell id="6u80KyBXNDFzt-EY8-pE-12" style="edgeStyle=orthogonalEdgeStyle;rounded=0;orthogonalLoop=1;jettySize=auto;html=1;exitX=0.5;exitY=1;exitDx=0;exitDy=0;strokeColor=default;startArrow=classic;startFill=1;endArrow=classic;endFill=1;entryX=0.495;entryY=-0.007;entryDx=0;entryDy=0;entryPerimeter=0;" parent="1" source="6u80KyBXNDFzt-EY8-pE-5" target="6u80KyBXNDFzt-EY8-pE-9" edge="1">
          <mxGeometry relative="1" as="geometry">
            <mxPoint x="260" y="600" as="targetPoint" />
            <Array as="points">
              <mxPoint x="540" y="600" />
              <mxPoint x="320" y="600" />
              <mxPoint x="320" y="628" />
            </Array>
          </mxGeometry>
        </mxCell>
        <mxCell id="6u80KyBXNDFzt-EY8-pE-5" value="&lt;b&gt;WP4&lt;/b&gt;&lt;br&gt;&lt;div&gt;&lt;span&gt;Radar stealthing methodology&lt;/span&gt;&lt;/div&gt;&lt;div&gt;&lt;span&gt;(SPARC)&lt;/span&gt;&lt;/div&gt;" style="whiteSpace=wrap;html=1;aspect=fixed;fillColor=#dae8fc;strokeColor=#6c8ebf;" parent="1" vertex="1">
          <mxGeometry x="480" y="400" width="120" height="120" as="geometry" />
        </mxCell>
        <mxCell id="6u80KyBXNDFzt-EY8-pE-13" style="edgeStyle=orthogonalEdgeStyle;rounded=0;orthogonalLoop=1;jettySize=auto;html=1;exitX=0.5;exitY=1;exitDx=0;exitDy=0;entryX=0.491;entryY=-0.005;entryDx=0;entryDy=0;strokeColor=default;startArrow=classic;startFill=1;endArrow=classic;endFill=1;entryPerimeter=0;" parent="1" source="6u80KyBXNDFzt-EY8-pE-6" target="6u80KyBXNDFzt-EY8-pE-9" edge="1">
          <mxGeometry relative="1" as="geometry">
            <Array as="points">
              <mxPoint x="700" y="600" />
              <mxPoint x="320" y="600" />
              <mxPoint x="320" y="621" />
            </Array>
          </mxGeometry>
        </mxCell>
        <mxCell id="6u80KyBXNDFzt-EY8-pE-6" value="&lt;b&gt;WP5&lt;/b&gt;&lt;span&gt;&lt;br&gt;&lt;/span&gt;&lt;div&gt;&lt;span&gt;Commercialization strategy&lt;/span&gt;&lt;/div&gt;&lt;div&gt;&lt;span&gt;(SPARC)&lt;/span&gt;&lt;/div&gt;" style="whiteSpace=wrap;html=1;aspect=fixed;fillColor=#dae8fc;strokeColor=#6c8ebf;" parent="1" vertex="1">
          <mxGeometry x="640" y="460" width="120" height="120" as="geometry" />
        </mxCell>
        <mxCell id="6u80KyBXNDFzt-EY8-pE-10" style="edgeStyle=orthogonalEdgeStyle;rounded=0;orthogonalLoop=1;jettySize=auto;html=1;exitX=0.493;exitY=-0.004;exitDx=0;exitDy=0;endArrow=classic;endFill=1;strokeColor=default;startArrow=classic;startFill=1;exitPerimeter=0;" parent="1" source="6u80KyBXNDFzt-EY8-pE-9" target="6u80KyBXNDFzt-EY8-pE-1" edge="1">
          <mxGeometry relative="1" as="geometry">
            <Array as="points">
              <mxPoint x="320" y="622" />
              <mxPoint x="320" y="622" />
              <mxPoint x="320" y="600" />
              <mxPoint x="220" y="600" />
            </Array>
          </mxGeometry>
        </mxCell>
        <mxCell id="6u80KyBXNDFzt-EY8-pE-9" value="&lt;b&gt;WP1&lt;/b&gt;&lt;br&gt;&lt;span&gt;Project, stakeholder management and compliant dissemination&lt;/span&gt;&lt;br&gt;&lt;span&gt;(SnT)&lt;/span&gt;" style="whiteSpace=wrap;html=1;aspect=fixed;fillColor=#ffe6cc;strokeColor=#d79b00;" parent="1" vertex="1">
          <mxGeometry x="261" y="629" width="120" height="120" as="geometry" />
        </mxCell>
        <mxCell id="WapiQG-VlsCUMoSiwlXK-1" value="&lt;b&gt;WP3.1&lt;/b&gt;&lt;br&gt;&lt;span&gt;Atmosphere study for VLEO&lt;br&gt;(SnT)&lt;br&gt;&lt;/span&gt;" style="whiteSpace=wrap;html=1;aspect=fixed;fillColor=#ffe6cc;strokeColor=#d79b00;" parent="1" vertex="1">
          <mxGeometry y="220" width="120" height="120" as="geometry" />
        </mxCell>
        <mxCell id="WapiQG-VlsCUMoSiwlXK-2" style="edgeStyle=orthogonalEdgeStyle;rounded=0;orthogonalLoop=1;jettySize=auto;html=1;exitX=1.015;exitY=0.164;exitDx=0;exitDy=0;entryX=0.5;entryY=0;entryDx=0;entryDy=0;exitPerimeter=0;shape=flexArrow;" parent="1" edge="1">
          <mxGeometry relative="1" as="geometry">
            <mxPoint x="120.00000000000017" y="239.67999999999995" as="sourcePoint" />
            <mxPoint x="218.2" y="279.9999999999999" as="targetPoint" />
          </mxGeometry>
        </mxCell>
        <mxCell id="WapiQG-VlsCUMoSiwlXK-3" style="edgeStyle=orthogonalEdgeStyle;rounded=0;orthogonalLoop=1;jettySize=auto;html=1;endArrow=classic;endFill=1;strokeColor=default;startArrow=classic;startFill=1;exitX=0.491;exitY=-0.003;exitDx=0;exitDy=0;exitPerimeter=0;entryX=0.5;entryY=1;entryDx=0;entryDy=0;" parent="1" source="6u80KyBXNDFzt-EY8-pE-9" target="WapiQG-VlsCUMoSiwlXK-1" edge="1">
          <mxGeometry relative="1" as="geometry">
            <Array as="points">
              <mxPoint x="320" y="600" />
              <mxPoint x="60" y="600" />
            </Array>
            <mxPoint x="259" y="619" as="sourcePoint" />
            <mxPoint x="64" y="400" as="targetPoint" />
          </mxGeometry>
        </mxCell>
        <mxCell id="r7LQb18F4gSGtSUEHotT-3" style="edgeStyle=orthogonalEdgeStyle;rounded=0;orthogonalLoop=1;jettySize=auto;html=1;" edge="1" parent="1" source="r7LQb18F4gSGtSUEHotT-2" target="6u80KyBXNDFzt-EY8-pE-9">
          <mxGeometry relative="1" as="geometry" />
        </mxCell>
        <mxCell id="r7LQb18F4gSGtSUEHotT-2" value="&lt;b&gt;Project Advice&lt;br&gt;&lt;/b&gt;(Prof. L. Walpot, ESA)&lt;span&gt;&lt;/span&gt;" style="rounded=0;whiteSpace=wrap;html=1;fillColor=#e1d5e7;strokeColor=#9673a6;" vertex="1" parent="1">
          <mxGeometry x="86" y="659" width="120" height="60" as="geometry" />
        </mxCell>
        <mxCell id="r7LQb18F4gSGtSUEHotT-5" style="edgeStyle=orthogonalEdgeStyle;rounded=0;orthogonalLoop=1;jettySize=auto;html=1;entryX=0.925;entryY=1.003;entryDx=0;entryDy=0;entryPerimeter=0;endArrow=blockThin;endFill=1;startArrow=blockThin;startFill=1;" edge="1" parent="1" source="r7LQb18F4gSGtSUEHotT-4" target="6u80KyBXNDFzt-EY8-pE-2">
          <mxGeometry relative="1" as="geometry" />
        </mxCell>
        <mxCell id="r7LQb18F4gSGtSUEHotT-4" value="Validation Feasibility Study (VKI)" style="whiteSpace=wrap;html=1;aspect=fixed;fillColor=#f8cecc;strokeColor=#b85450;" vertex="1" parent="1">
          <mxGeometry x="401" y="500" width="60" height="60" as="geometry" />
        </mxCell>
      </root>
    </mxGraphModel>
  </diagram>
</mxfile>
